<svg xmlns="http://www.w3.org/2000/svg" xmlns:xlink="http://www.w3.org/1999/xlink" width="500" zoomAndPan="magnify" viewBox="0 0 375 374.999991" height="500" preserveAspectRatio="xMidYMid meet" version="1.0"><defs><g/><clipPath id="f5b4cc6400"><path d="M 7.6875 69.507812 L 130.6875 69.507812 L 130.6875 166.257812 L 7.6875 166.257812 Z M 7.6875 69.507812 " clip-rule="nonzero"/></clipPath><clipPath id="4958eea636"><path d="M 87.386719 104.875 C 89.28125 105.230469 91.144531 105.679688 92.964844 106.21875 C 92.902344 106.910156 93.078125 107.570312 93.425781 108.117188 C 93.410156 108.089844 93.394531 108.066406 93.378906 108.039062 C 93.371094 108.027344 93.367188 108.019531 93.363281 108.011719 C 93.160156 107.660156 93.03125 107.28125 92.980469 106.902344 C 92.980469 106.890625 92.976562 106.875 92.976562 106.863281 C 92.960938 106.742188 92.953125 106.625 92.953125 106.503906 C 92.957031 105.464844 93.5 104.453125 94.464844 103.894531 C 94.9375 103.621094 95.457031 103.492188 95.96875 103.492188 C 97.015625 103.492188 98.03125 104.035156 98.59375 105 C 98.78125 105.324219 98.898438 105.667969 98.957031 106.015625 C 98.984375 106.175781 98.996094 106.335938 98.996094 106.5 C 98.996094 107.089844 98.824219 107.667969 98.496094 108.160156 C 100.542969 109 102.527344 109.953125 104.441406 111.019531 C 104.257812 111.363281 104.054688 111.695312 103.828125 112.015625 C 103.832031 112.007812 103.835938 112.003906 103.84375 111.996094 C 105.933594 109.011719 106.214844 104.96875 104.25 101.65625 C 103.089844 99.691406 101.347656 98.292969 99.367188 97.550781 C 99.1875 97.492188 99.003906 97.4375 98.816406 97.386719 C 97.933594 97.125 97.007812 96.992188 96.074219 96.992188 C 94.789062 96.988281 93.488281 97.25 92.253906 97.789062 C 92.238281 97.792969 92.222656 97.800781 92.207031 97.808594 L 81.457031 91.621094 L 70.453125 97.957031 L 61.320312 92.703125 L 80.804688 81.484375 L 112.421875 99.679688 L 112.421875 111.125 L 80.792969 129.339844 L 49.164062 111.132812 C 49.164062 111.132812 49.164062 111.132812 49.160156 111.136719 L 26.875 98.308594 C 27 96.4375 26.550781 94.585938 25.609375 92.957031 C 24.046875 90.269531 21.339844 88.542969 18.300781 88.21875 C 14.046875 87.769531 9.980469 90.207031 8.386719 94.167969 C 7.328125 96.804688 7.449219 99.878906 8.980469 102.527344 C 9.480469 103.390625 10.097656 104.144531 10.796875 104.789062 C 13.464844 107.230469 17.292969 107.96875 20.667969 106.699219 L 38.777344 117.128906 L 38.777344 118.339844 L 38.785156 118.355469 L 38.785156 142.0625 L 80.804688 166.253906 L 116.234375 145.867188 C 117.804688 146.78125 119.621094 147.230469 121.425781 147.160156 C 122.960938 147.105469 124.492188 146.683594 125.878906 145.882812 C 130.46875 143.25 132.050781 137.390625 129.390625 132.8125 C 126.992188 128.660156 121.933594 126.980469 117.585938 128.679688 C 114.277344 129.972656 111.917969 132.992188 111.53125 136.578125 L 80.789062 154.273438 L 54.023438 138.875 C 54.027344 138.875 54.03125 138.878906 54.03125 138.878906 L 49.171875 136.082031 L 49.171875 123.105469 L 75.605469 138.320312 L 80.808594 141.316406 L 117.054688 120.449219 L 122.808594 117.136719 L 122.808594 93.699219 C 113.757812 88.492188 104.710938 83.277344 95.65625 78.0625 C 95.65625 78.0625 95.65625 78.0625 95.652344 78.066406 C 90.699219 75.210938 85.742188 72.355469 80.789062 69.503906 L 50.90625 86.710938 L 48.847656 85.523438 C 48.925781 83.707031 48.492188 81.910156 47.566406 80.316406 C 44.910156 75.734375 39.042969 74.175781 34.457031 76.816406 C 29.863281 79.457031 28.289062 85.304688 30.941406 89.886719 C 33.328125 94.007812 38.378906 95.742188 42.785156 94.003906 L 63.035156 105.65625 C 63.035156 105.65625 63.03125 105.65625 63.027344 105.65625 L 70.464844 109.933594 L 81.492188 103.59375 C 83.457031 104.722656 85.277344 105.96875 87.183594 107.160156 C 87.183594 107.128906 87.179688 107.101562 87.175781 107.074219 C 87.542969 111.863281 91.554688 115.632812 96.453125 115.632812 C 99.457031 115.632812 102.125 114.214844 103.828125 112.015625 C 104.050781 111.695312 104.257812 111.363281 104.441406 111.019531 C 102.527344 109.953125 100.542969 109 98.496094 108.160156 C 98.492188 108.167969 98.488281 108.175781 98.480469 108.183594 C 98.375 108.34375 98.25 108.492188 98.113281 108.632812 C 98.113281 108.632812 98.113281 108.632812 98.109375 108.632812 C 98 108.742188 97.882812 108.84375 97.753906 108.9375 C 97.605469 109.042969 97.449219 109.136719 97.285156 109.214844 C 97.035156 109.335938 96.765625 109.425781 96.484375 109.472656 C 96.480469 109.472656 96.476562 109.472656 96.46875 109.476562 C 96.386719 109.488281 96.304688 109.5 96.21875 109.507812 C 96.21875 109.507812 96.214844 109.507812 96.214844 109.507812 C 96.136719 109.511719 96.054688 109.515625 95.976562 109.515625 C 95.925781 109.515625 95.878906 109.515625 95.828125 109.511719 C 95.382812 109.492188 94.964844 109.375 94.59375 109.183594 C 94.113281 108.9375 93.714844 108.566406 93.425781 108.117188 C 93.078125 107.570312 92.902344 106.910156 92.964844 106.21875 C 91.144531 105.679688 89.28125 105.230469 87.386719 104.875 Z M 19.976562 96.351562 C 20.15625 96.703125 20.265625 97.074219 20.300781 97.449219 C 20.410156 98.574219 19.878906 99.726562 18.800781 100.347656 C 18.179688 100.707031 17.480469 100.820312 16.820312 100.71875 C 16.527344 100.671875 16.242188 100.582031 15.972656 100.453125 C 15.5 100.222656 15.078125 99.863281 14.769531 99.390625 C 14.738281 99.34375 14.707031 99.296875 14.679688 99.246094 C 13.84375 97.808594 14.339844 95.96875 15.785156 95.132812 C 16.261719 94.859375 16.777344 94.730469 17.289062 94.730469 C 17.628906 94.730469 17.96875 94.789062 18.289062 94.898438 C 18.90625 95.113281 19.457031 95.527344 19.832031 96.109375 C 19.886719 96.1875 19.933594 96.269531 19.976562 96.351562 Z M 42.269531 85.3125 C 42.234375 85.78125 42.089844 86.238281 41.851562 86.644531 C 41.667969 86.949219 41.429688 87.222656 41.152344 87.445312 C 41.03125 87.542969 40.902344 87.632812 40.765625 87.714844 C 40.289062 87.984375 39.769531 88.113281 39.261719 88.113281 C 38.792969 88.113281 38.332031 88.007812 37.917969 87.800781 C 37.429688 87.5625 37.019531 87.195312 36.722656 86.746094 C 36.695312 86.699219 36.664062 86.65625 36.636719 86.605469 C 36.363281 86.132812 36.234375 85.613281 36.234375 85.097656 C 36.234375 84.574219 36.375 84.054688 36.636719 83.601562 C 36.902344 83.140625 37.285156 82.757812 37.746094 82.492188 C 37.765625 82.480469 37.78125 82.46875 37.800781 82.457031 C 38.628906 82.007812 39.578125 81.980469 40.390625 82.308594 C 40.894531 82.515625 41.332031 82.851562 41.65625 83.277344 C 41.734375 83.378906 41.804688 83.484375 41.871094 83.597656 C 42.117188 84.019531 42.246094 84.480469 42.269531 84.9375 C 42.273438 84.992188 42.273438 85.046875 42.273438 85.105469 C 42.273438 85.171875 42.273438 85.242188 42.269531 85.3125 Z M 119.3125 140.042969 C 117.671875 138.867188 117.632812 136.4375 119.25 135.207031 C 120.636719 134.160156 122.585938 134.480469 123.5625 135.882812 C 124.511719 137.246094 124.167969 139.113281 122.820312 140.0625 C 121.765625 140.800781 120.355469 140.789062 119.3125 140.042969 Z M 87.148438 106.359375 C 87.148438 106.441406 87.152344 106.519531 87.152344 106.597656 C 87.152344 106.519531 87.148438 106.441406 87.148438 106.359375 Z M 87.152344 106.597656 C 87.15625 106.679688 87.160156 106.757812 87.164062 106.835938 C 87.160156 106.757812 87.15625 106.679688 87.152344 106.597656 Z M 87.164062 106.839844 C 87.167969 106.917969 87.171875 106.996094 87.175781 107.074219 C 87.171875 106.996094 87.167969 106.917969 87.164062 106.839844 Z M 87.164062 106.839844 " clip-rule="evenodd"/></clipPath><linearGradient x1="190.493037" gradientTransform="matrix(0.0135622, 0, 0, 0.0135204, 7.693167, 69.505918)" y1="-138.994327" x2="6738.175957" gradientUnits="userSpaceOnUse" y2="8853.026442" id="29dc9633c1"><stop stop-opacity="1" stop-color="rgb(49.398804%, 85.099792%, 34.098816%)" offset="0"/><stop stop-opacity="1" stop-color="rgb(49.398804%, 85.099792%, 34.098816%)" offset="0.125"/><stop stop-opacity="1" stop-color="rgb(49.398804%, 85.099792%, 34.098816%)" offset="0.1875"/><stop stop-opacity="1" stop-color="rgb(49.398804%, 85.099792%, 34.098816%)" offset="0.21875"/><stop stop-opacity="1" stop-color="rgb(49.143982%, 85.014343%, 34.405518%)" offset="0.222656"/><stop stop-opacity="1" stop-color="rgb(48.890686%, 84.928894%, 34.712219%)" offset="0.226563"/><stop stop-opacity="1" stop-color="rgb(48.550415%, 84.814453%, 35.122681%)" offset="0.230469"/><stop stop-opacity="1" stop-color="rgb(48.210144%, 84.701538%, 35.534668%)" offset="0.234375"/><stop stop-opacity="1" stop-color="rgb(47.868347%, 84.587097%, 35.945129%)" offset="0.238281"/><stop stop-opacity="1" stop-color="rgb(47.528076%, 84.474182%, 36.357117%)" offset="0.242188"/><stop stop-opacity="1" stop-color="rgb(47.186279%, 84.359741%, 36.767578%)" offset="0.246094"/><stop stop-opacity="1" stop-color="rgb(46.846008%, 84.246826%, 37.179565%)" offset="0.25"/><stop stop-opacity="1" stop-color="rgb(46.504211%, 84.132385%, 37.590027%)" offset="0.253906"/><stop stop-opacity="1" stop-color="rgb(46.16394%, 84.017944%, 38.002014%)" offset="0.257812"/><stop stop-opacity="1" stop-color="rgb(45.822144%, 83.903503%, 38.412476%)" offset="0.261719"/><stop stop-opacity="1" stop-color="rgb(45.481873%, 83.790588%, 38.824463%)" offset="0.265625"/><stop stop-opacity="1" stop-color="rgb(45.140076%, 83.676147%, 39.23645%)" offset="0.269531"/><stop stop-opacity="1" stop-color="rgb(44.799805%, 83.563232%, 39.648438%)" offset="0.273438"/><stop stop-opacity="1" stop-color="rgb(44.458008%, 83.448792%, 40.058899%)" offset="0.277344"/><stop stop-opacity="1" stop-color="rgb(44.117737%, 83.335876%, 40.470886%)" offset="0.28125"/><stop stop-opacity="1" stop-color="rgb(43.777466%, 83.221436%, 40.881348%)" offset="0.285156"/><stop stop-opacity="1" stop-color="rgb(43.437195%, 83.106995%, 41.293335%)" offset="0.289062"/><stop stop-opacity="1" stop-color="rgb(43.095398%, 82.992554%, 41.703796%)" offset="0.292969"/><stop stop-opacity="1" stop-color="rgb(42.755127%, 82.879639%, 42.115784%)" offset="0.296875"/><stop stop-opacity="1" stop-color="rgb(42.41333%, 82.765198%, 42.526245%)" offset="0.300781"/><stop stop-opacity="1" stop-color="rgb(42.073059%, 82.652283%, 42.938232%)" offset="0.304688"/><stop stop-opacity="1" stop-color="rgb(41.731262%, 82.537842%, 43.348694%)" offset="0.308594"/><stop stop-opacity="1" stop-color="rgb(41.390991%, 82.424927%, 43.760681%)" offset="0.3125"/><stop stop-opacity="1" stop-color="rgb(41.049194%, 82.310486%, 44.171143%)" offset="0.316406"/><stop stop-opacity="1" stop-color="rgb(40.708923%, 82.196045%, 44.58313%)" offset="0.320312"/><stop stop-opacity="1" stop-color="rgb(40.367126%, 82.081604%, 44.993591%)" offset="0.324219"/><stop stop-opacity="1" stop-color="rgb(40.026855%, 81.968689%, 45.405579%)" offset="0.328125"/><stop stop-opacity="1" stop-color="rgb(39.686584%, 81.854248%, 45.81604%)" offset="0.332031"/><stop stop-opacity="1" stop-color="rgb(39.346313%, 81.741333%, 46.228027%)" offset="0.335938"/><stop stop-opacity="1" stop-color="rgb(39.004517%, 81.626892%, 46.640015%)" offset="0.339844"/><stop stop-opacity="1" stop-color="rgb(38.664246%, 81.513977%, 47.052002%)" offset="0.34375"/><stop stop-opacity="1" stop-color="rgb(38.322449%, 81.399536%, 47.462463%)" offset="0.347656"/><stop stop-opacity="1" stop-color="rgb(37.982178%, 81.285095%, 47.874451%)" offset="0.351562"/><stop stop-opacity="1" stop-color="rgb(37.640381%, 81.170654%, 48.284912%)" offset="0.355469"/><stop stop-opacity="1" stop-color="rgb(37.30011%, 81.057739%, 48.696899%)" offset="0.359375"/><stop stop-opacity="1" stop-color="rgb(36.958313%, 80.943298%, 49.107361%)" offset="0.363281"/><stop stop-opacity="1" stop-color="rgb(36.618042%, 80.830383%, 49.519348%)" offset="0.367188"/><stop stop-opacity="1" stop-color="rgb(36.276245%, 80.715942%, 49.92981%)" offset="0.371094"/><stop stop-opacity="1" stop-color="rgb(35.935974%, 80.603027%, 50.341797%)" offset="0.375"/><stop stop-opacity="1" stop-color="rgb(35.594177%, 80.488586%, 50.752258%)" offset="0.378906"/><stop stop-opacity="1" stop-color="rgb(35.253906%, 80.374146%, 51.164246%)" offset="0.382813"/><stop stop-opacity="1" stop-color="rgb(34.913635%, 80.259705%, 51.574707%)" offset="0.386719"/><stop stop-opacity="1" stop-color="rgb(34.573364%, 80.14679%, 51.986694%)" offset="0.390625"/><stop stop-opacity="1" stop-color="rgb(34.231567%, 80.032349%, 52.397156%)" offset="0.394531"/><stop stop-opacity="1" stop-color="rgb(33.891296%, 79.919434%, 52.809143%)" offset="0.398438"/><stop stop-opacity="1" stop-color="rgb(33.5495%, 79.804993%, 53.219604%)" offset="0.402344"/><stop stop-opacity="1" stop-color="rgb(33.209229%, 79.692078%, 53.631592%)" offset="0.40625"/><stop stop-opacity="1" stop-color="rgb(32.867432%, 79.577637%, 54.043579%)" offset="0.410156"/><stop stop-opacity="1" stop-color="rgb(32.527161%, 79.463196%, 54.455566%)" offset="0.414062"/><stop stop-opacity="1" stop-color="rgb(32.185364%, 79.348755%, 54.866028%)" offset="0.417969"/><stop stop-opacity="1" stop-color="rgb(31.845093%, 79.23584%, 55.278015%)" offset="0.421875"/><stop stop-opacity="1" stop-color="rgb(31.503296%, 79.121399%, 55.688477%)" offset="0.425781"/><stop stop-opacity="1" stop-color="rgb(31.163025%, 79.008484%, 56.100464%)" offset="0.429688"/><stop stop-opacity="1" stop-color="rgb(30.822754%, 78.894043%, 56.510925%)" offset="0.433594"/><stop stop-opacity="1" stop-color="rgb(30.482483%, 78.781128%, 56.922913%)" offset="0.4375"/><stop stop-opacity="1" stop-color="rgb(30.140686%, 78.666687%, 57.333374%)" offset="0.441406"/><stop stop-opacity="1" stop-color="rgb(29.800415%, 78.552246%, 57.745361%)" offset="0.445313"/><stop stop-opacity="1" stop-color="rgb(29.458618%, 78.437805%, 58.155823%)" offset="0.449219"/><stop stop-opacity="1" stop-color="rgb(29.118347%, 78.32489%, 58.56781%)" offset="0.453125"/><stop stop-opacity="1" stop-color="rgb(28.77655%, 78.210449%, 58.978271%)" offset="0.457031"/><stop stop-opacity="1" stop-color="rgb(28.436279%, 78.097534%, 59.390259%)" offset="0.460938"/><stop stop-opacity="1" stop-color="rgb(28.094482%, 77.983093%, 59.80072%)" offset="0.464844"/><stop stop-opacity="1" stop-color="rgb(27.754211%, 77.870178%, 60.212708%)" offset="0.46875"/><stop stop-opacity="1" stop-color="rgb(27.412415%, 77.755737%, 60.623169%)" offset="0.472656"/><stop stop-opacity="1" stop-color="rgb(27.072144%, 77.641296%, 61.035156%)" offset="0.476563"/><stop stop-opacity="1" stop-color="rgb(26.730347%, 77.526855%, 61.447144%)" offset="0.480469"/><stop stop-opacity="1" stop-color="rgb(26.390076%, 77.41394%, 61.859131%)" offset="0.484375"/><stop stop-opacity="1" stop-color="rgb(26.049805%, 77.2995%, 62.269592%)" offset="0.488281"/><stop stop-opacity="1" stop-color="rgb(25.709534%, 77.186584%, 62.68158%)" offset="0.492188"/><stop stop-opacity="1" stop-color="rgb(25.367737%, 77.072144%, 63.092041%)" offset="0.496094"/><stop stop-opacity="1" stop-color="rgb(25.027466%, 76.959229%, 63.504028%)" offset="0.5"/><stop stop-opacity="1" stop-color="rgb(24.685669%, 76.844788%, 63.91449%)" offset="0.503906"/><stop stop-opacity="1" stop-color="rgb(24.345398%, 76.730347%, 64.326477%)" offset="0.507812"/><stop stop-opacity="1" stop-color="rgb(24.003601%, 76.615906%, 64.736938%)" offset="0.511719"/><stop stop-opacity="1" stop-color="rgb(23.66333%, 76.502991%, 65.148926%)" offset="0.515625"/><stop stop-opacity="1" stop-color="rgb(23.321533%, 76.38855%, 65.559387%)" offset="0.519531"/><stop stop-opacity="1" stop-color="rgb(22.981262%, 76.275635%, 65.971375%)" offset="0.523438"/><stop stop-opacity="1" stop-color="rgb(22.639465%, 76.161194%, 66.381836%)" offset="0.527344"/><stop stop-opacity="1" stop-color="rgb(22.299194%, 76.048279%, 66.793823%)" offset="0.53125"/><stop stop-opacity="1" stop-color="rgb(21.958923%, 75.933838%, 67.204285%)" offset="0.535156"/><stop stop-opacity="1" stop-color="rgb(21.618652%, 75.819397%, 67.616272%)" offset="0.539062"/><stop stop-opacity="1" stop-color="rgb(21.276855%, 75.704956%, 68.026733%)" offset="0.542969"/><stop stop-opacity="1" stop-color="rgb(20.936584%, 75.592041%, 68.438721%)" offset="0.546875"/><stop stop-opacity="1" stop-color="rgb(20.594788%, 75.4776%, 68.850708%)" offset="0.550781"/><stop stop-opacity="1" stop-color="rgb(20.254517%, 75.364685%, 69.262695%)" offset="0.554688"/><stop stop-opacity="1" stop-color="rgb(19.91272%, 75.250244%, 69.673157%)" offset="0.558594"/><stop stop-opacity="1" stop-color="rgb(19.572449%, 75.137329%, 70.085144%)" offset="0.5625"/><stop stop-opacity="1" stop-color="rgb(19.230652%, 75.022888%, 70.495605%)" offset="0.566406"/><stop stop-opacity="1" stop-color="rgb(18.890381%, 74.908447%, 70.907593%)" offset="0.570313"/><stop stop-opacity="1" stop-color="rgb(18.548584%, 74.794006%, 71.318054%)" offset="0.574219"/><stop stop-opacity="1" stop-color="rgb(18.208313%, 74.681091%, 71.730042%)" offset="0.578125"/><stop stop-opacity="1" stop-color="rgb(17.866516%, 74.56665%, 72.140503%)" offset="0.582031"/><stop stop-opacity="1" stop-color="rgb(17.526245%, 74.453735%, 72.55249%)" offset="0.585938"/><stop stop-opacity="1" stop-color="rgb(17.185974%, 74.339294%, 72.962952%)" offset="0.589844"/><stop stop-opacity="1" stop-color="rgb(16.845703%, 74.226379%, 73.374939%)" offset="0.59375"/><stop stop-opacity="1" stop-color="rgb(16.503906%, 74.111938%, 73.7854%)" offset="0.597656"/><stop stop-opacity="1" stop-color="rgb(16.163635%, 73.997498%, 74.197388%)" offset="0.601562"/><stop stop-opacity="1" stop-color="rgb(15.821838%, 73.883057%, 74.607849%)" offset="0.605469"/><stop stop-opacity="1" stop-color="rgb(15.481567%, 73.770142%, 75.019836%)" offset="0.609375"/><stop stop-opacity="1" stop-color="rgb(15.139771%, 73.655701%, 75.430298%)" offset="0.613281"/><stop stop-opacity="1" stop-color="rgb(14.7995%, 73.542786%, 75.842285%)" offset="0.617188"/><stop stop-opacity="1" stop-color="rgb(14.457703%, 73.428345%, 76.252747%)" offset="0.621094"/><stop stop-opacity="1" stop-color="rgb(14.117432%, 73.31543%, 76.664734%)" offset="0.625"/><stop stop-opacity="1" stop-color="rgb(13.775635%, 73.200989%, 77.076721%)" offset="0.628906"/><stop stop-opacity="1" stop-color="rgb(13.435364%, 73.086548%, 77.488708%)" offset="0.632812"/><stop stop-opacity="1" stop-color="rgb(13.095093%, 72.972107%, 77.89917%)" offset="0.636719"/><stop stop-opacity="1" stop-color="rgb(12.754822%, 72.859192%, 78.311157%)" offset="0.640625"/><stop stop-opacity="1" stop-color="rgb(12.413025%, 72.744751%, 78.721619%)" offset="0.644531"/><stop stop-opacity="1" stop-color="rgb(12.072754%, 72.631836%, 79.133606%)" offset="0.648438"/><stop stop-opacity="1" stop-color="rgb(11.730957%, 72.517395%, 79.544067%)" offset="0.652344"/><stop stop-opacity="1" stop-color="rgb(11.390686%, 72.40448%, 79.956055%)" offset="0.65625"/><stop stop-opacity="1" stop-color="rgb(11.048889%, 72.290039%, 80.366516%)" offset="0.660156"/><stop stop-opacity="1" stop-color="rgb(10.708618%, 72.175598%, 80.778503%)" offset="0.664063"/><stop stop-opacity="1" stop-color="rgb(10.366821%, 72.061157%, 81.188965%)" offset="0.667969"/><stop stop-opacity="1" stop-color="rgb(10.02655%, 71.948242%, 81.600952%)" offset="0.671875"/><stop stop-opacity="1" stop-color="rgb(9.684753%, 71.833801%, 82.011414%)" offset="0.675781"/><stop stop-opacity="1" stop-color="rgb(9.344482%, 71.720886%, 82.423401%)" offset="0.679688"/><stop stop-opacity="1" stop-color="rgb(9.004211%, 71.606445%, 82.833862%)" offset="0.683594"/><stop stop-opacity="1" stop-color="rgb(8.66394%, 71.49353%, 83.24585%)" offset="0.6875"/><stop stop-opacity="1" stop-color="rgb(8.322144%, 71.379089%, 83.656311%)" offset="0.691406"/><stop stop-opacity="1" stop-color="rgb(7.981873%, 71.264648%, 84.068298%)" offset="0.695313"/><stop stop-opacity="1" stop-color="rgb(7.640076%, 71.150208%, 84.480286%)" offset="0.699219"/><stop stop-opacity="1" stop-color="rgb(7.299805%, 71.037292%, 84.892273%)" offset="0.703125"/><stop stop-opacity="1" stop-color="rgb(6.958008%, 70.922852%, 85.302734%)" offset="0.707031"/><stop stop-opacity="1" stop-color="rgb(6.617737%, 70.809937%, 85.714722%)" offset="0.710938"/><stop stop-opacity="1" stop-color="rgb(6.27594%, 70.695496%, 86.125183%)" offset="0.714844"/><stop stop-opacity="1" stop-color="rgb(5.935669%, 70.582581%, 86.53717%)" offset="0.71875"/><stop stop-opacity="1" stop-color="rgb(5.593872%, 70.46814%, 86.947632%)" offset="0.722656"/><stop stop-opacity="1" stop-color="rgb(5.253601%, 70.353699%, 87.359619%)" offset="0.726562"/><stop stop-opacity="1" stop-color="rgb(4.911804%, 70.239258%, 87.770081%)" offset="0.730469"/><stop stop-opacity="1" stop-color="rgb(4.571533%, 70.126343%, 88.182068%)" offset="0.734375"/><stop stop-opacity="1" stop-color="rgb(4.231262%, 70.011902%, 88.592529%)" offset="0.738281"/><stop stop-opacity="1" stop-color="rgb(3.890991%, 69.898987%, 89.004517%)" offset="0.742188"/><stop stop-opacity="1" stop-color="rgb(3.549194%, 69.784546%, 89.414978%)" offset="0.746094"/><stop stop-opacity="1" stop-color="rgb(3.208923%, 69.671631%, 89.826965%)" offset="0.75"/><stop stop-opacity="1" stop-color="rgb(2.867126%, 69.55719%, 90.237427%)" offset="0.753906"/><stop stop-opacity="1" stop-color="rgb(2.526855%, 69.442749%, 90.649414%)" offset="0.757812"/><stop stop-opacity="1" stop-color="rgb(2.185059%, 69.328308%, 91.059875%)" offset="0.761719"/><stop stop-opacity="1" stop-color="rgb(1.844788%, 69.215393%, 91.471863%)" offset="0.765625"/><stop stop-opacity="1" stop-color="rgb(1.502991%, 69.100952%, 91.88385%)" offset="0.769531"/><stop stop-opacity="1" stop-color="rgb(1.16272%, 68.988037%, 92.295837%)" offset="0.773438"/><stop stop-opacity="1" stop-color="rgb(0.820923%, 68.873596%, 92.706299%)" offset="0.777344"/><stop stop-opacity="1" stop-color="rgb(0.480652%, 68.760681%, 93.118286%)" offset="0.78125"/><stop stop-opacity="1" stop-color="rgb(0.239563%, 68.67981%, 93.408203%)" offset="0.785156"/><stop stop-opacity="1" stop-color="rgb(0%, 68.598938%, 93.699646%)" offset="0.789062"/><stop stop-opacity="1" stop-color="rgb(0%, 68.598938%, 93.699646%)" offset="0.796875"/><stop stop-opacity="1" stop-color="rgb(0%, 68.598938%, 93.699646%)" offset="0.8125"/><stop stop-opacity="1" stop-color="rgb(0%, 68.598938%, 93.699646%)" offset="0.875"/><stop stop-opacity="1" stop-color="rgb(0%, 68.598938%, 93.699646%)" offset="1"/></linearGradient></defs><g clip-path="url(#f5b4cc6400)"><g clip-path="url(#4958eea636)"><path fill="url(#29dc9633c1)" d="M 7.6875 69.507812 L 7.6875 166.253906 L 130.6875 166.253906 L 130.6875 69.507812 Z M 7.6875 69.507812 " fill-rule="nonzero"/></g></g><g fill="#d9d9d9" fill-opacity="1"><g transform="translate(158.78797, 204.115568)"><g><path d="M 13.984375 -18.15625 L 13.984375 -22.859375 C 13.984375 -23.523438 13.609375 -23.859375 12.859375 -23.859375 L 9.59375 -23.859375 L 9.59375 -17.15625 L 12.859375 -17.15625 C 13.609375 -17.15625 13.984375 -17.488281 13.984375 -18.15625 Z M 13.984375 -6.203125 L 13.984375 -10.953125 C 13.984375 -11.617188 13.609375 -11.953125 12.859375 -11.953125 L 9.59375 -11.953125 L 9.59375 -5.203125 L 12.859375 -5.203125 C 13.609375 -5.203125 13.984375 -5.535156 13.984375 -6.203125 Z M 1.8125 -29.0625 L 15.125 -29.0625 C 19.550781 -29.0625 21.765625 -27.191406 21.765625 -23.453125 L 21.765625 -19.734375 C 21.765625 -17.109375 21.039062 -15.40625 19.59375 -14.625 C 20.445312 -14.257812 21.019531 -13.707031 21.3125 -12.96875 C 21.613281 -12.226562 21.765625 -11.222656 21.765625 -9.953125 L 21.765625 -5.609375 C 21.765625 -1.867188 19.550781 0 15.125 0 L 1.8125 0 Z M 1.8125 -29.0625 "/></g></g></g><g fill="#d9d9d9" fill-opacity="1"><g transform="translate(182.142414, 204.115568)"><g><path d="M 8.015625 -22.59375 L 13.765625 -22.59375 C 16.054688 -22.59375 17.695312 -22.109375 18.6875 -21.140625 C 19.6875 -20.171875 20.1875 -18.78125 20.1875 -16.96875 L 20.1875 -5.609375 C 20.1875 -3.796875 19.6875 -2.40625 18.6875 -1.4375 C 17.695312 -0.476562 16.054688 0 13.765625 0 L 8.015625 0 C 5.722656 0 4.078125 -0.476562 3.078125 -1.4375 C 2.078125 -2.40625 1.578125 -3.796875 1.578125 -5.609375 L 1.578125 -16.96875 C 1.578125 -18.78125 2.078125 -20.171875 3.078125 -21.140625 C 4.078125 -22.109375 5.722656 -22.59375 8.015625 -22.59375 Z M 12.625 -6.34375 L 12.625 -16.25 C 12.625 -16.914062 12.25 -17.25 11.5 -17.25 L 10.28125 -17.25 C 9.519531 -17.25 9.140625 -16.914062 9.140625 -16.25 L 9.140625 -6.34375 C 9.140625 -5.675781 9.519531 -5.34375 10.28125 -5.34375 L 11.5 -5.34375 C 12.25 -5.34375 12.625 -5.675781 12.625 -6.34375 Z M 12.625 -6.34375 "/></g></g></g><g fill="#d9d9d9" fill-opacity="1"><g transform="translate(203.912742, 204.115568)"><g><path d="M 14.625 -11.671875 L 20.234375 0 L 12.453125 0 L 10 -6.703125 L 7.78125 0 L 0.265625 0 L 5.4375 -11.546875 L 0 -22.59375 L 8.0625 -22.59375 L 10 -16.296875 L 11.953125 -22.59375 L 19.59375 -22.59375 Z M 14.625 -11.671875 "/></g></g></g><g fill="#d9d9d9" fill-opacity="1"><g transform="translate(224.144208, 204.115568)"><g><path d="M 19.328125 -29.0625 L 19.328125 -23.40625 L 13.71875 -23.40625 L 13.71875 0 L 5.796875 0 L 5.796875 -23.40625 L 0.21875 -23.40625 L 0.21875 -29.0625 Z M 19.328125 -29.0625 "/></g></g></g><g fill="#d9d9d9" fill-opacity="1"><g transform="translate(243.696771, 204.115568)"><g><path d="M 8.015625 -22.59375 L 13.53125 -22.59375 C 17.96875 -22.59375 20.1875 -20.71875 20.1875 -16.96875 L 20.1875 -9.28125 L 8.640625 -9.28125 L 8.640625 -6.296875 C 8.640625 -5.628906 9.019531 -5.296875 9.78125 -5.296875 L 11.765625 -5.296875 C 12.523438 -5.296875 12.90625 -5.65625 12.90625 -6.375 L 12.90625 -7.65625 L 20.1875 -7.65625 L 20.1875 -5.609375 C 20.1875 -1.867188 17.96875 0 13.53125 0 L 8.015625 0 C 3.578125 0 1.359375 -1.867188 1.359375 -5.609375 L 1.359375 -16.96875 C 1.359375 -20.71875 3.578125 -22.59375 8.015625 -22.59375 Z M 8.640625 -13.4375 L 12.90625 -13.4375 L 12.90625 -16.296875 C 12.90625 -16.960938 12.523438 -17.296875 11.765625 -17.296875 L 9.78125 -17.296875 C 9.019531 -17.296875 8.640625 -16.960938 8.640625 -16.296875 Z M 8.640625 -13.4375 "/></g></g></g><g fill="#d9d9d9" fill-opacity="1"><g transform="translate(265.014492, 204.115568)"><g><path d="M 19.515625 -13.84375 L 12.078125 -13.84375 L 12.078125 -15.9375 C 12.078125 -16.59375 11.703125 -16.921875 10.953125 -16.921875 L 10.1875 -16.921875 C 9.425781 -16.921875 9.046875 -16.59375 9.046875 -15.9375 L 9.046875 -6.65625 C 9.046875 -5.988281 9.425781 -5.65625 10.1875 -5.65625 L 10.953125 -5.65625 C 11.703125 -5.65625 12.078125 -5.988281 12.078125 -6.65625 L 12.078125 -8.734375 L 19.515625 -8.734375 L 19.515625 -5.609375 C 19.515625 -1.867188 17.296875 0 12.859375 0 L 8.015625 0 C 3.578125 0 1.359375 -1.867188 1.359375 -5.609375 L 1.359375 -16.96875 C 1.359375 -20.71875 3.578125 -22.59375 8.015625 -22.59375 L 12.859375 -22.59375 C 17.296875 -22.59375 19.515625 -20.71875 19.515625 -16.96875 Z M 19.515625 -13.84375 "/></g></g></g><g fill="#d9d9d9" fill-opacity="1"><g transform="translate(285.426999, 204.115568)"><g><path d="M 13.484375 -22.59375 L 14.296875 -22.59375 C 18.316406 -22.59375 20.328125 -20.71875 20.328125 -16.96875 L 20.328125 0 L 12.625 0 L 12.625 -15.9375 C 12.625 -16.59375 12.25 -16.921875 11.5 -16.921875 L 10.734375 -16.921875 C 9.910156 -16.921875 9.5 -16.472656 9.5 -15.578125 L 9.5 0 L 1.8125 0 L 1.8125 -30.28125 L 9.5 -30.28125 L 9.5 -20.140625 C 10.070312 -21.773438 11.398438 -22.59375 13.484375 -22.59375 Z M 13.484375 -22.59375 "/></g></g></g><g fill="#d9d9d9" fill-opacity="1"><g transform="translate(205.133493, 238.964806)"><g><path d="M 10.25 -8.765625 L 6.4375 -8.765625 L 6.4375 -11.015625 C 6.4375 -11.335938 6.253906 -11.5 5.890625 -11.5 L 5.125 -11.5 C 4.757812 -11.5 4.578125 -11.335938 4.578125 -11.015625 L 4.578125 -2.984375 C 4.578125 -2.671875 4.757812 -2.515625 5.125 -2.515625 L 5.890625 -2.515625 C 6.253906 -2.515625 6.4375 -2.671875 6.4375 -2.984375 L 6.4375 -5.140625 L 10.25 -5.140625 L 10.25 -2.703125 C 10.25 -0.898438 9.179688 0 7.046875 0 L 3.96875 0 C 1.832031 0 0.765625 -0.898438 0.765625 -2.703125 L 0.765625 -11.296875 C 0.765625 -13.097656 1.832031 -14 3.96875 -14 L 7.046875 -14 C 9.179688 -14 10.25 -13.097656 10.25 -11.296875 Z M 10.25 -8.765625 "/></g></g></g><g fill="#d9d9d9" fill-opacity="1"><g transform="translate(217.016304, 238.964806)"><g><path d="M 4.6875 -4.96875 L 4.6875 0 L 0.875 0 L 0.875 -14 L 7.34375 -14 C 9.488281 -14 10.5625 -13.097656 10.5625 -11.296875 L 10.5625 -7.671875 C 10.5625 -6.296875 9.9375 -5.445312 8.6875 -5.125 L 11.25 0 L 7.15625 0 L 4.921875 -4.96875 Z M 6.1875 -11.28125 L 4.6875 -11.28125 L 4.6875 -7.5625 L 6.1875 -7.5625 C 6.550781 -7.5625 6.734375 -7.722656 6.734375 -8.046875 L 6.734375 -10.796875 C 6.734375 -11.117188 6.550781 -11.28125 6.1875 -11.28125 Z M 6.1875 -11.28125 "/></g></g></g><g fill="#d9d9d9" fill-opacity="1"><g transform="translate(229.313363, 238.964806)"><g><path d="M 4.6875 -2.71875 L 9.46875 -2.71875 L 9.46875 0 L 0.875 0 L 0.875 -14 L 9.265625 -14 L 9.265625 -11.28125 L 4.6875 -11.28125 L 4.6875 -8.421875 L 8.640625 -8.421875 L 8.640625 -5.6875 L 4.6875 -5.6875 Z M 4.6875 -2.71875 "/></g></g></g><g fill="#d9d9d9" fill-opacity="1"><g transform="translate(240.193253, 238.964806)"><g><path d="M 8 0 L 7.5625 -2.09375 L 4.203125 -2.09375 L 3.75 0 L 0 0 L 3.59375 -14 L 8.25 -14 L 11.84375 0 Z M 4.796875 -4.796875 L 6.984375 -4.796875 L 5.90625 -9.84375 Z M 4.796875 -4.796875 "/></g></g></g><g fill="#d9d9d9" fill-opacity="1"><g transform="translate(253.122593, 238.964806)"><g><path d="M 9.3125 -14 L 9.3125 -11.28125 L 6.609375 -11.28125 L 6.609375 0 L 2.796875 0 L 2.796875 -11.28125 L 0.109375 -11.28125 L 0.109375 -14 Z M 9.3125 -14 "/></g></g></g><g fill="#d9d9d9" fill-opacity="1"><g transform="translate(263.631846, 238.964806)"><g><path d="M 0.875 -14 L 4.6875 -14 L 4.6875 0 L 0.875 0 Z M 0.875 -14 "/></g></g></g><g fill="#d9d9d9" fill-opacity="1"><g transform="translate(270.282032, 238.964806)"><g><path d="M 7.5 -14 L 11.46875 -14 L 8.03125 0 L 3.59375 0 L 0.15625 -14 L 4.125 -14 L 5.796875 -4.640625 Z M 7.5 -14 "/></g></g></g><g fill="#d9d9d9" fill-opacity="1"><g transform="translate(282.993348, 238.964806)"><g><path d="M 4.6875 -2.71875 L 9.46875 -2.71875 L 9.46875 0 L 0.875 0 L 0.875 -14 L 9.265625 -14 L 9.265625 -11.28125 L 4.6875 -11.28125 L 4.6875 -8.421875 L 8.640625 -8.421875 L 8.640625 -5.6875 L 4.6875 -5.6875 Z M 4.6875 -2.71875 "/></g></g></g></svg>