<svg xmlns="http://www.w3.org/2000/svg" xmlns:xlink="http://www.w3.org/1999/xlink" width="500" zoomAndPan="magnify" viewBox="0 0 375 374.999991" height="500" preserveAspectRatio="xMidYMid meet" version="1.0"><defs><clipPath id="0874915f92"><path d="M 11.578125 37.5 L 363.328125 37.5 L 363.328125 315 L 11.578125 315 Z M 11.578125 37.5 " clip-rule="nonzero"/></clipPath><clipPath id="5134714fcf"><path d="M 239.5 138.945312 C 244.917969 139.96875 250.242188 141.257812 255.457031 142.804688 C 255.269531 144.78125 255.773438 146.679688 256.773438 148.246094 C 256.726562 148.171875 256.679688 148.09375 256.632812 148.019531 C 256.617188 147.992188 256.601562 147.964844 256.589844 147.9375 C 256.007812 146.929688 255.648438 145.851562 255.5 144.765625 C 255.496094 144.726562 255.488281 144.6875 255.484375 144.648438 C 255.445312 144.304688 255.425781 143.960938 255.425781 143.621094 C 255.429688 140.640625 256.980469 137.738281 259.742188 136.128906 C 261.097656 135.351562 262.578125 134.980469 264.042969 134.980469 C 267.03125 134.980469 269.945312 136.53125 271.546875 139.308594 C 272.082031 140.238281 272.425781 141.222656 272.589844 142.21875 C 272.667969 142.679688 272.703125 143.140625 272.703125 143.601562 C 272.707031 145.292969 272.207031 146.957031 271.273438 148.375 C 277.121094 150.773438 282.804688 153.507812 288.273438 156.566406 C 287.75 157.554688 287.164062 158.507812 286.519531 159.425781 C 286.535156 159.40625 286.546875 159.386719 286.5625 159.371094 C 292.542969 150.816406 293.347656 139.210938 287.734375 129.710938 C 284.40625 124.082031 279.425781 120.070312 273.765625 117.933594 C 273.246094 117.765625 272.722656 117.609375 272.191406 117.472656 C 269.660156 116.71875 267.015625 116.332031 264.347656 116.332031 C 260.667969 116.332031 256.953125 117.074219 253.417969 118.617188 C 253.375 118.636719 253.332031 118.65625 253.289062 118.675781 L 222.546875 100.9375 L 191.066406 119.105469 L 164.949219 104.035156 L 220.675781 71.859375 L 311.101562 124.042969 L 311.101562 156.871094 L 220.640625 209.121094 L 130.191406 156.898438 C 130.1875 156.898438 130.183594 156.898438 130.179688 156.902344 L 66.445312 120.109375 C 66.796875 114.75 65.515625 109.429688 62.816406 104.765625 C 58.351562 97.050781 50.613281 92.097656 41.925781 91.175781 C 29.753906 89.886719 18.128906 96.878906 13.570312 108.242188 C 10.539062 115.796875 10.882812 124.621094 15.265625 132.210938 C 16.695312 134.683594 18.457031 136.855469 20.460938 138.695312 C 20.460938 138.695312 20.460938 138.699219 20.460938 138.699219 C 28.089844 145.707031 39.039062 147.820312 48.695312 144.179688 L 100.480469 174.09375 L 100.480469 177.566406 L 100.5 177.609375 L 100.5 245.609375 L 220.675781 315 L 322 256.523438 C 326.492188 259.136719 331.6875 260.425781 336.847656 260.234375 C 341.238281 260.074219 345.617188 258.859375 349.585938 256.566406 C 362.714844 249.011719 367.230469 232.203125 359.632812 219.074219 C 352.769531 207.164062 338.304688 202.351562 325.863281 207.226562 C 316.402344 210.929688 309.65625 219.59375 308.558594 229.875 L 220.628906 280.632812 L 144.085938 236.46875 C 144.09375 236.46875 144.105469 236.472656 144.109375 236.472656 L 130.203125 228.460938 L 130.203125 191.238281 L 205.800781 234.871094 L 220.6875 243.464844 L 324.351562 183.613281 C 324.351562 183.613281 324.347656 183.613281 324.347656 183.613281 L 340.804688 174.113281 L 340.804688 106.886719 C 314.917969 91.957031 289.042969 77.003906 263.152344 62.042969 C 263.152344 62.042969 263.148438 62.046875 263.144531 62.050781 C 248.972656 53.863281 234.800781 45.675781 220.628906 37.5 L 135.167969 86.84375 L 129.277344 83.441406 C 129.503906 78.230469 128.261719 73.074219 125.621094 68.507812 C 118.023438 55.359375 101.238281 50.890625 88.125 58.460938 C 74.984375 66.046875 70.480469 82.8125 78.070312 95.953125 C 84.902344 107.773438 99.34375 112.75 111.941406 107.761719 L 169.859375 141.183594 C 169.851562 141.1875 169.84375 141.1875 169.835938 141.191406 L 191.109375 153.449219 L 222.640625 135.273438 C 228.265625 138.511719 233.464844 142.078125 238.921875 145.5 C 238.914062 145.417969 238.90625 145.335938 238.902344 145.25 C 239.949219 158.988281 251.425781 169.804688 265.429688 169.804688 C 274.015625 169.804688 281.65625 165.738281 286.519531 159.425781 C 287.164062 158.507812 287.75 157.554688 288.273438 156.566406 C 282.804688 153.507812 277.121094 150.773438 271.273438 148.375 C 271.261719 148.394531 271.246094 148.417969 271.230469 148.441406 C 270.925781 148.894531 270.570312 149.324219 270.175781 149.71875 C 270.175781 149.722656 270.171875 149.722656 270.171875 149.722656 C 269.859375 150.039062 269.515625 150.328125 269.152344 150.59375 C 269.148438 150.597656 269.148438 150.597656 269.144531 150.597656 C 268.726562 150.902344 268.277344 151.171875 267.8125 151.398438 C 267.089844 151.746094 266.320312 151.996094 265.523438 152.132812 C 265.507812 152.136719 265.496094 152.136719 265.480469 152.140625 C 265.242188 152.179688 265 152.210938 264.757812 152.230469 C 264.757812 152.230469 264.753906 152.230469 264.75 152.230469 C 264.523438 152.25 264.296875 152.257812 264.066406 152.257812 C 263.921875 152.257812 263.78125 152.253906 263.640625 152.246094 C 262.367188 152.1875 261.175781 151.851562 260.113281 151.304688 C 258.742188 150.597656 257.59375 149.53125 256.777344 148.25 C 256.773438 148.246094 256.773438 148.246094 256.773438 148.246094 C 255.777344 146.679688 255.273438 144.78125 255.457031 142.800781 C 250.246094 141.257812 244.917969 139.96875 239.5 138.945312 Z M 46.710938 114.503906 C 47.230469 115.503906 47.539062 116.570312 47.640625 117.648438 C 47.949219 120.878906 46.429688 124.183594 43.355469 125.957031 C 41.570312 126.988281 39.574219 127.316406 37.6875 127.019531 C 36.847656 126.886719 36.03125 126.632812 35.265625 126.257812 C 33.910156 125.601562 32.707031 124.574219 31.816406 123.21875 C 31.726562 123.085938 31.644531 122.949219 31.5625 122.808594 C 29.175781 118.675781 30.59375 113.402344 34.722656 111.003906 C 36.082031 110.222656 37.566406 109.851562 39.027344 109.851562 C 40.003906 109.847656 40.96875 110.015625 41.886719 110.332031 C 43.652344 110.949219 45.226562 112.132812 46.304688 113.808594 C 46.453125 114.035156 46.585938 114.265625 46.707031 114.5 Z M 110.464844 82.832031 C 110.367188 84.175781 109.960938 85.488281 109.269531 86.652344 C 108.746094 87.535156 108.066406 88.316406 107.273438 88.957031 C 106.929688 89.238281 106.558594 89.492188 106.164062 89.722656 C 104.804688 90.503906 103.324219 90.875 101.863281 90.875 C 100.53125 90.875 99.214844 90.566406 98.023438 89.976562 C 96.632812 89.289062 95.453125 88.238281 94.609375 86.949219 C 94.523438 86.820312 94.441406 86.6875 94.363281 86.550781 C 93.578125 85.183594 93.203125 83.695312 93.207031 82.226562 C 93.210938 80.71875 93.605469 79.234375 94.355469 77.925781 C 95.117188 76.605469 96.210938 75.503906 97.527344 74.742188 C 97.582031 74.710938 97.636719 74.679688 97.691406 74.648438 C 100.054688 73.359375 102.765625 73.285156 105.09375 74.226562 C 106.539062 74.816406 107.789062 75.78125 108.71875 77.003906 C 108.9375 77.289062 109.140625 77.59375 109.328125 77.917969 C 110.027344 79.132812 110.402344 80.445312 110.472656 81.757812 C 110.480469 81.917969 110.484375 82.078125 110.484375 82.238281 C 110.484375 82.4375 110.476562 82.636719 110.464844 82.832031 Z M 330.804688 239.808594 C 326.117188 236.441406 326.003906 229.476562 330.621094 225.941406 C 334.589844 222.9375 340.164062 223.859375 342.957031 227.878906 C 345.671875 231.789062 344.695312 237.148438 340.832031 239.867188 C 337.824219 241.984375 333.789062 241.960938 330.804688 239.808594 Z M 238.824219 143.207031 C 238.824219 143.433594 238.828125 143.664062 238.832031 143.890625 C 238.828125 143.664062 238.824219 143.433594 238.824219 143.207031 Z M 238.832031 143.894531 C 238.839844 144.121094 238.847656 144.347656 238.859375 144.570312 C 238.847656 144.347656 238.839844 144.121094 238.832031 143.894531 Z M 238.859375 144.578125 C 238.871094 144.800781 238.882812 145.027344 238.902344 145.25 C 238.882812 145.027344 238.871094 144.800781 238.859375 144.578125 Z M 238.859375 144.578125 " clip-rule="evenodd"/></clipPath><linearGradient x1="190.582292" gradientTransform="matrix(0.0387867, 0, 0, 0.0387793, 11.583728, 37.499999)" y1="-138.871753" x2="6738.087457" gradientUnits="userSpaceOnUse" y2="8852.904904" id="03623b4a38"><stop stop-opacity="1" stop-color="rgb(49.398804%, 85.099792%, 34.098816%)" offset="0"/><stop stop-opacity="1" stop-color="rgb(49.398804%, 85.099792%, 34.098816%)" offset="0.125"/><stop stop-opacity="1" stop-color="rgb(49.398804%, 85.099792%, 34.098816%)" offset="0.1875"/><stop stop-opacity="1" stop-color="rgb(49.398804%, 85.099792%, 34.098816%)" offset="0.21875"/><stop stop-opacity="1" stop-color="rgb(49.143982%, 85.014343%, 34.405518%)" offset="0.222656"/><stop stop-opacity="1" stop-color="rgb(48.890686%, 84.928894%, 34.712219%)" offset="0.226562"/><stop stop-opacity="1" stop-color="rgb(48.548889%, 84.814453%, 35.124207%)" offset="0.230469"/><stop stop-opacity="1" stop-color="rgb(48.208618%, 84.701538%, 35.536194%)" offset="0.234375"/><stop stop-opacity="1" stop-color="rgb(47.866821%, 84.587097%, 35.946655%)" offset="0.238281"/><stop stop-opacity="1" stop-color="rgb(47.52655%, 84.474182%, 36.358643%)" offset="0.242188"/><stop stop-opacity="1" stop-color="rgb(47.184753%, 84.359741%, 36.769104%)" offset="0.246094"/><stop stop-opacity="1" stop-color="rgb(46.844482%, 84.246826%, 37.181091%)" offset="0.25"/><stop stop-opacity="1" stop-color="rgb(46.504211%, 84.132385%, 37.591553%)" offset="0.253906"/><stop stop-opacity="1" stop-color="rgb(46.16394%, 84.017944%, 38.00354%)" offset="0.257812"/><stop stop-opacity="1" stop-color="rgb(45.822144%, 83.903503%, 38.414001%)" offset="0.261719"/><stop stop-opacity="1" stop-color="rgb(45.481873%, 83.790588%, 38.825989%)" offset="0.265625"/><stop stop-opacity="1" stop-color="rgb(45.140076%, 83.676147%, 39.23645%)" offset="0.269531"/><stop stop-opacity="1" stop-color="rgb(44.799805%, 83.563232%, 39.648438%)" offset="0.273438"/><stop stop-opacity="1" stop-color="rgb(44.458008%, 83.448792%, 40.058899%)" offset="0.277344"/><stop stop-opacity="1" stop-color="rgb(44.117737%, 83.335876%, 40.470886%)" offset="0.28125"/><stop stop-opacity="1" stop-color="rgb(43.77594%, 83.221436%, 40.881348%)" offset="0.285156"/><stop stop-opacity="1" stop-color="rgb(43.435669%, 83.106995%, 41.293335%)" offset="0.289062"/><stop stop-opacity="1" stop-color="rgb(43.093872%, 82.992554%, 41.703796%)" offset="0.292969"/><stop stop-opacity="1" stop-color="rgb(42.753601%, 82.879639%, 42.115784%)" offset="0.296875"/><stop stop-opacity="1" stop-color="rgb(42.41333%, 82.765198%, 42.526245%)" offset="0.300781"/><stop stop-opacity="1" stop-color="rgb(42.073059%, 82.652283%, 42.938232%)" offset="0.304688"/><stop stop-opacity="1" stop-color="rgb(41.731262%, 82.537842%, 43.348694%)" offset="0.308594"/><stop stop-opacity="1" stop-color="rgb(41.390991%, 82.424927%, 43.760681%)" offset="0.3125"/><stop stop-opacity="1" stop-color="rgb(41.049194%, 82.310486%, 44.172668%)" offset="0.316406"/><stop stop-opacity="1" stop-color="rgb(40.708923%, 82.196045%, 44.584656%)" offset="0.320312"/><stop stop-opacity="1" stop-color="rgb(40.367126%, 82.081604%, 44.995117%)" offset="0.324219"/><stop stop-opacity="1" stop-color="rgb(40.026855%, 81.968689%, 45.407104%)" offset="0.328125"/><stop stop-opacity="1" stop-color="rgb(39.685059%, 81.854248%, 45.817566%)" offset="0.332031"/><stop stop-opacity="1" stop-color="rgb(39.344788%, 81.741333%, 46.229553%)" offset="0.335938"/><stop stop-opacity="1" stop-color="rgb(39.002991%, 81.626892%, 46.640015%)" offset="0.339844"/><stop stop-opacity="1" stop-color="rgb(38.66272%, 81.513977%, 47.052002%)" offset="0.34375"/><stop stop-opacity="1" stop-color="rgb(38.322449%, 81.399536%, 47.462463%)" offset="0.347656"/><stop stop-opacity="1" stop-color="rgb(37.982178%, 81.285095%, 47.874451%)" offset="0.351563"/><stop stop-opacity="1" stop-color="rgb(37.640381%, 81.170654%, 48.284912%)" offset="0.355469"/><stop stop-opacity="1" stop-color="rgb(37.30011%, 81.057739%, 48.696899%)" offset="0.359375"/><stop stop-opacity="1" stop-color="rgb(36.958313%, 80.943298%, 49.107361%)" offset="0.363281"/><stop stop-opacity="1" stop-color="rgb(36.618042%, 80.830383%, 49.519348%)" offset="0.367188"/><stop stop-opacity="1" stop-color="rgb(36.276245%, 80.715942%, 49.92981%)" offset="0.371094"/><stop stop-opacity="1" stop-color="rgb(35.935974%, 80.603027%, 50.341797%)" offset="0.375"/><stop stop-opacity="1" stop-color="rgb(35.594177%, 80.488586%, 50.752258%)" offset="0.378906"/><stop stop-opacity="1" stop-color="rgb(35.253906%, 80.374146%, 51.164246%)" offset="0.382812"/><stop stop-opacity="1" stop-color="rgb(34.912109%, 80.259705%, 51.574707%)" offset="0.386719"/><stop stop-opacity="1" stop-color="rgb(34.571838%, 80.14679%, 51.986694%)" offset="0.390625"/><stop stop-opacity="1" stop-color="rgb(34.231567%, 80.032349%, 52.398682%)" offset="0.394531"/><stop stop-opacity="1" stop-color="rgb(33.891296%, 79.919434%, 52.810669%)" offset="0.398438"/><stop stop-opacity="1" stop-color="rgb(33.5495%, 79.804993%, 53.22113%)" offset="0.402344"/><stop stop-opacity="1" stop-color="rgb(33.209229%, 79.692078%, 53.633118%)" offset="0.40625"/><stop stop-opacity="1" stop-color="rgb(32.867432%, 79.577637%, 54.043579%)" offset="0.410156"/><stop stop-opacity="1" stop-color="rgb(32.527161%, 79.463196%, 54.455566%)" offset="0.414062"/><stop stop-opacity="1" stop-color="rgb(32.185364%, 79.348755%, 54.866028%)" offset="0.417969"/><stop stop-opacity="1" stop-color="rgb(31.845093%, 79.23584%, 55.278015%)" offset="0.421875"/><stop stop-opacity="1" stop-color="rgb(31.503296%, 79.121399%, 55.688477%)" offset="0.425781"/><stop stop-opacity="1" stop-color="rgb(31.163025%, 79.008484%, 56.100464%)" offset="0.429688"/><stop stop-opacity="1" stop-color="rgb(30.821228%, 78.894043%, 56.510925%)" offset="0.433594"/><stop stop-opacity="1" stop-color="rgb(30.480957%, 78.781128%, 56.922913%)" offset="0.4375"/><stop stop-opacity="1" stop-color="rgb(30.140686%, 78.666687%, 57.333374%)" offset="0.441406"/><stop stop-opacity="1" stop-color="rgb(29.800415%, 78.552246%, 57.745361%)" offset="0.445313"/><stop stop-opacity="1" stop-color="rgb(29.458618%, 78.437805%, 58.155823%)" offset="0.449219"/><stop stop-opacity="1" stop-color="rgb(29.118347%, 78.32489%, 58.56781%)" offset="0.453125"/><stop stop-opacity="1" stop-color="rgb(28.77655%, 78.210449%, 58.978271%)" offset="0.457031"/><stop stop-opacity="1" stop-color="rgb(28.436279%, 78.097534%, 59.390259%)" offset="0.460938"/><stop stop-opacity="1" stop-color="rgb(28.094482%, 77.983093%, 59.80072%)" offset="0.464844"/><stop stop-opacity="1" stop-color="rgb(27.754211%, 77.870178%, 60.212708%)" offset="0.46875"/><stop stop-opacity="1" stop-color="rgb(27.412415%, 77.755737%, 60.623169%)" offset="0.472656"/><stop stop-opacity="1" stop-color="rgb(27.072144%, 77.641296%, 61.035156%)" offset="0.476562"/><stop stop-opacity="1" stop-color="rgb(26.730347%, 77.526855%, 61.447144%)" offset="0.480469"/><stop stop-opacity="1" stop-color="rgb(26.390076%, 77.41394%, 61.859131%)" offset="0.484375"/><stop stop-opacity="1" stop-color="rgb(26.049805%, 77.2995%, 62.269592%)" offset="0.488281"/><stop stop-opacity="1" stop-color="rgb(25.709534%, 77.186584%, 62.68158%)" offset="0.492188"/><stop stop-opacity="1" stop-color="rgb(25.367737%, 77.072144%, 63.092041%)" offset="0.496094"/><stop stop-opacity="1" stop-color="rgb(25.027466%, 76.959229%, 63.504028%)" offset="0.5"/><stop stop-opacity="1" stop-color="rgb(24.685669%, 76.844788%, 63.91449%)" offset="0.503906"/><stop stop-opacity="1" stop-color="rgb(24.345398%, 76.730347%, 64.326477%)" offset="0.507812"/><stop stop-opacity="1" stop-color="rgb(24.003601%, 76.615906%, 64.736938%)" offset="0.511719"/><stop stop-opacity="1" stop-color="rgb(23.66333%, 76.502991%, 65.148926%)" offset="0.515625"/><stop stop-opacity="1" stop-color="rgb(23.321533%, 76.38855%, 65.559387%)" offset="0.519531"/><stop stop-opacity="1" stop-color="rgb(22.981262%, 76.275635%, 65.971375%)" offset="0.523438"/><stop stop-opacity="1" stop-color="rgb(22.639465%, 76.161194%, 66.381836%)" offset="0.527344"/><stop stop-opacity="1" stop-color="rgb(22.299194%, 76.048279%, 66.793823%)" offset="0.53125"/><stop stop-opacity="1" stop-color="rgb(21.958923%, 75.933838%, 67.204285%)" offset="0.535156"/><stop stop-opacity="1" stop-color="rgb(21.618652%, 75.819397%, 67.616272%)" offset="0.539062"/><stop stop-opacity="1" stop-color="rgb(21.276855%, 75.704956%, 68.026733%)" offset="0.542969"/><stop stop-opacity="1" stop-color="rgb(20.936584%, 75.592041%, 68.438721%)" offset="0.546875"/><stop stop-opacity="1" stop-color="rgb(20.594788%, 75.4776%, 68.849182%)" offset="0.550781"/><stop stop-opacity="1" stop-color="rgb(20.254517%, 75.364685%, 69.261169%)" offset="0.554688"/><stop stop-opacity="1" stop-color="rgb(19.91272%, 75.250244%, 69.671631%)" offset="0.558594"/><stop stop-opacity="1" stop-color="rgb(19.572449%, 75.137329%, 70.083618%)" offset="0.5625"/><stop stop-opacity="1" stop-color="rgb(19.230652%, 75.022888%, 70.495605%)" offset="0.566406"/><stop stop-opacity="1" stop-color="rgb(18.890381%, 74.908447%, 70.907593%)" offset="0.570312"/><stop stop-opacity="1" stop-color="rgb(18.548584%, 74.794006%, 71.318054%)" offset="0.574219"/><stop stop-opacity="1" stop-color="rgb(18.208313%, 74.681091%, 71.730042%)" offset="0.578125"/><stop stop-opacity="1" stop-color="rgb(17.868042%, 74.56665%, 72.140503%)" offset="0.582031"/><stop stop-opacity="1" stop-color="rgb(17.527771%, 74.453735%, 72.55249%)" offset="0.585938"/><stop stop-opacity="1" stop-color="rgb(17.185974%, 74.339294%, 72.962952%)" offset="0.589844"/><stop stop-opacity="1" stop-color="rgb(16.845703%, 74.226379%, 73.374939%)" offset="0.59375"/><stop stop-opacity="1" stop-color="rgb(16.503906%, 74.111938%, 73.7854%)" offset="0.597656"/><stop stop-opacity="1" stop-color="rgb(16.163635%, 73.997498%, 74.197388%)" offset="0.601562"/><stop stop-opacity="1" stop-color="rgb(15.821838%, 73.883057%, 74.607849%)" offset="0.605469"/><stop stop-opacity="1" stop-color="rgb(15.481567%, 73.770142%, 75.019836%)" offset="0.609375"/><stop stop-opacity="1" stop-color="rgb(15.139771%, 73.655701%, 75.430298%)" offset="0.613281"/><stop stop-opacity="1" stop-color="rgb(14.7995%, 73.542786%, 75.842285%)" offset="0.617188"/><stop stop-opacity="1" stop-color="rgb(14.457703%, 73.428345%, 76.252747%)" offset="0.621094"/><stop stop-opacity="1" stop-color="rgb(14.117432%, 73.31543%, 76.664734%)" offset="0.625"/><stop stop-opacity="1" stop-color="rgb(13.777161%, 73.200989%, 77.075195%)" offset="0.628906"/><stop stop-opacity="1" stop-color="rgb(13.43689%, 73.088074%, 77.487183%)" offset="0.632812"/><stop stop-opacity="1" stop-color="rgb(13.095093%, 72.973633%, 77.897644%)" offset="0.636719"/><stop stop-opacity="1" stop-color="rgb(12.754822%, 72.859192%, 78.309631%)" offset="0.640625"/><stop stop-opacity="1" stop-color="rgb(12.413025%, 72.744751%, 78.721619%)" offset="0.644531"/><stop stop-opacity="1" stop-color="rgb(12.072754%, 72.631836%, 79.133606%)" offset="0.648438"/><stop stop-opacity="1" stop-color="rgb(11.730957%, 72.517395%, 79.544067%)" offset="0.652344"/><stop stop-opacity="1" stop-color="rgb(11.390686%, 72.40448%, 79.956055%)" offset="0.65625"/><stop stop-opacity="1" stop-color="rgb(11.048889%, 72.290039%, 80.366516%)" offset="0.660156"/><stop stop-opacity="1" stop-color="rgb(10.708618%, 72.177124%, 80.778503%)" offset="0.664062"/><stop stop-opacity="1" stop-color="rgb(10.366821%, 72.062683%, 81.188965%)" offset="0.667969"/><stop stop-opacity="1" stop-color="rgb(10.02655%, 71.948242%, 81.600952%)" offset="0.671875"/><stop stop-opacity="1" stop-color="rgb(9.686279%, 71.833801%, 82.011414%)" offset="0.675781"/><stop stop-opacity="1" stop-color="rgb(9.346008%, 71.720886%, 82.423401%)" offset="0.679688"/><stop stop-opacity="1" stop-color="rgb(9.004211%, 71.606445%, 82.833862%)" offset="0.683594"/><stop stop-opacity="1" stop-color="rgb(8.66394%, 71.49353%, 83.24585%)" offset="0.6875"/><stop stop-opacity="1" stop-color="rgb(8.322144%, 71.379089%, 83.656311%)" offset="0.691406"/><stop stop-opacity="1" stop-color="rgb(7.981873%, 71.266174%, 84.068298%)" offset="0.695312"/><stop stop-opacity="1" stop-color="rgb(7.640076%, 71.151733%, 84.47876%)" offset="0.699219"/><stop stop-opacity="1" stop-color="rgb(7.299805%, 71.037292%, 84.890747%)" offset="0.703125"/><stop stop-opacity="1" stop-color="rgb(6.958008%, 70.922852%, 85.301208%)" offset="0.707031"/><stop stop-opacity="1" stop-color="rgb(6.617737%, 70.809937%, 85.713196%)" offset="0.710938"/><stop stop-opacity="1" stop-color="rgb(6.27594%, 70.695496%, 86.123657%)" offset="0.714844"/><stop stop-opacity="1" stop-color="rgb(5.935669%, 70.582581%, 86.535645%)" offset="0.71875"/><stop stop-opacity="1" stop-color="rgb(5.595398%, 70.46814%, 86.946106%)" offset="0.722656"/><stop stop-opacity="1" stop-color="rgb(5.255127%, 70.355225%, 87.358093%)" offset="0.726562"/><stop stop-opacity="1" stop-color="rgb(4.91333%, 70.240784%, 87.770081%)" offset="0.730469"/><stop stop-opacity="1" stop-color="rgb(4.573059%, 70.126343%, 88.182068%)" offset="0.734375"/><stop stop-opacity="1" stop-color="rgb(4.231262%, 70.011902%, 88.592529%)" offset="0.738281"/><stop stop-opacity="1" stop-color="rgb(3.890991%, 69.898987%, 89.004517%)" offset="0.742188"/><stop stop-opacity="1" stop-color="rgb(3.549194%, 69.784546%, 89.414978%)" offset="0.746094"/><stop stop-opacity="1" stop-color="rgb(3.208923%, 69.671631%, 89.826965%)" offset="0.75"/><stop stop-opacity="1" stop-color="rgb(2.867126%, 69.55719%, 90.237427%)" offset="0.753906"/><stop stop-opacity="1" stop-color="rgb(2.526855%, 69.444275%, 90.649414%)" offset="0.757812"/><stop stop-opacity="1" stop-color="rgb(2.185059%, 69.329834%, 91.059875%)" offset="0.761719"/><stop stop-opacity="1" stop-color="rgb(1.844788%, 69.215393%, 91.471863%)" offset="0.765625"/><stop stop-opacity="1" stop-color="rgb(1.504517%, 69.100952%, 91.882324%)" offset="0.769531"/><stop stop-opacity="1" stop-color="rgb(1.164246%, 68.988037%, 92.294312%)" offset="0.773438"/><stop stop-opacity="1" stop-color="rgb(0.822449%, 68.873596%, 92.704773%)" offset="0.777344"/><stop stop-opacity="1" stop-color="rgb(0.482178%, 68.760681%, 93.11676%)" offset="0.78125"/><stop stop-opacity="1" stop-color="rgb(0.241089%, 68.67981%, 93.408203%)" offset="0.785156"/><stop stop-opacity="1" stop-color="rgb(0%, 68.598938%, 93.699646%)" offset="0.789062"/><stop stop-opacity="1" stop-color="rgb(0%, 68.598938%, 93.699646%)" offset="0.796875"/><stop stop-opacity="1" stop-color="rgb(0%, 68.598938%, 93.699646%)" offset="0.8125"/><stop stop-opacity="1" stop-color="rgb(0%, 68.598938%, 93.699646%)" offset="0.875"/><stop stop-opacity="1" stop-color="rgb(0%, 68.598938%, 93.699646%)" offset="1"/></linearGradient></defs><g clip-path="url(#0874915f92)"><g clip-path="url(#5134714fcf)"><path fill="url(#03623b4a38)" d="M 11.578125 37.5 L 11.578125 315 L 363.328125 315 L 363.328125 37.5 Z M 11.578125 37.5 " fill-rule="nonzero"/></g></g></svg>